<?xml version="1.0" encoding="UTF-8" standalone="no"?>
<!DOCTYPE svg PUBLIC "-//W3C//DTD SVG 1.1//EN" "http://www.w3.org/Graphics/SVG/1.1/DTD/svg11.dtd">
<svg width="100%" height="100%" viewBox="0 0 3796 1792" version="1.1" xmlns="http://www.w3.org/2000/svg" xmlns:xlink="http://www.w3.org/1999/xlink" xml:space="preserve" xmlns:serif="http://www.serif.com/" style="fill-rule:evenodd;clip-rule:evenodd;stroke-linecap:round;stroke-linejoin:round;stroke-miterlimit:1.5;">
    <g transform="matrix(1,0,0,1,-465.677,-1465.94)">
        <path d="M923.958,1655.05L482.377,1655.05L536.268,1466.44L4260.99,1466.44L4207.1,1655.05L1239.37,1655.05L781.592,3257.2L466.177,3257.2L923.958,1655.05Z" style="stroke:black;stroke-width:1px;"/>
        <g transform="matrix(0.42852,0,-0.100231,0.350789,955.814,1863.28)">
            <rect x="776.218" y="562.191" width="736.057" height="3411.45" style="stroke:black;stroke-width:2.94px;"/>
        </g>
        <g transform="matrix(0.42852,0,-0.100231,0.350789,1379.79,1863.28)">
            <rect x="776.218" y="562.191" width="736.057" height="3411.45" style="stroke:black;stroke-width:2.94px;"/>
        </g>
        <g transform="matrix(0.42852,0,-0.100231,0.350789,1803.77,1863.28)">
            <rect x="776.218" y="562.191" width="736.057" height="3411.45" style="stroke:black;stroke-width:2.94px;"/>
        </g>
        <g transform="matrix(0.42852,0,-0.100231,0.350789,3075.72,1863.28)">
            <rect x="776.218" y="562.191" width="736.057" height="3411.45" style="stroke:black;stroke-width:2.94px;"/>
        </g>
        <g transform="matrix(0.42852,0,-0.100231,0.350789,3499.7,1863.28)">
            <rect x="776.218" y="562.191" width="736.057" height="3411.45" style="stroke:black;stroke-width:2.94px;"/>
        </g>
        <path d="M2535.17,1951.5L1250.78,1951.5L1304.67,1762.89L4176.13,1762.89L4122.24,1951.5L3274.57,1951.5L2901.49,3257.2L2586.08,3257.2L2959.15,1951.5L2850.59,1951.5L2477.51,3257.2L2162.1,3257.2L2535.17,1951.5Z" style="stroke:black;stroke-width:1px;"/>
    </g>
</svg>
