<svg xmlns="http://www.w3.org/2000/svg" xmlns:xlink="http://www.w3.org/1999/xlink" width="100%" height="100%" version="1.1" viewBox="0 0 2351 2076" xml:space="preserve" style="fill-rule:evenodd;clip-rule:evenodd;stroke-linejoin:round;stroke-miterlimit:2"><g><g><path d="M989.549,1161.2L997.117,696.205L3697.79,696.205L3697.09,1161.2L3585.2,1161.2L3869.63,3729.52L4289.38,3577.82L4283.39,3371.46L3292.63,3729.52L3008.2,1161.2L2650.7,1161.2L2650.7,3729.52L4281.17,3135.07L4281.04,2924.76L2073.7,3729.52L2073.7,1161.2L1716.2,1161.2L1431.78,3729.52L4290.35,2678.05L4278.28,2470.26L854.782,3729.52L1139.2,1161.2L989.549,1161.2Z" transform="matrix(1,0,0,1,-1330.62,-1222.2) matrix(0.683673,0,0,0.683673,747.228,747.228)" style="fill:url(#_Linear1)"/><path d="M1137.57,1162.67L989.549,1162.67C989.157,1162.67 988.781,1162.51 988.506,1162.23C988.231,1161.95 988.08,1161.57 988.086,1161.18L995.655,696.181C995.668,695.382 996.319,694.742 997.117,694.742L3697.79,694.742C3698.18,694.742 3698.55,694.896 3698.83,695.171C3699.1,695.446 3699.25,695.819 3699.25,696.207L3698.56,1161.21C3698.55,1162.01 3697.9,1162.67 3697.09,1162.67L3586.84,1162.67L3752.87,2661.96L4277.78,2468.88C4278.21,2468.72 4278.7,2468.78 4279.08,2469.03C4279.47,2469.29 4279.72,2469.71 4279.74,2470.17L4291.81,2677.97C4291.85,2678.61 4291.46,2679.2 4290.86,2679.43L3775.79,2868.88L3801.18,3098.15L4280.54,2923.38C4280.99,2923.22 4281.49,2923.28 4281.88,2923.56C4282.27,2923.83 4282.51,2924.28 4282.51,2924.75L4282.64,3135.07C4282.64,3135.69 4282.25,3136.24 4281.67,3136.45L3823.9,3303.34L3848.67,3527.01L4282.89,3370.08C4283.33,3369.92 4283.82,3369.99 4284.21,3370.25C4284.6,3370.51 4284.84,3370.95 4284.85,3371.42L4290.84,3577.78C4290.86,3578.41 4290.47,3578.98 4289.88,3579.2L3870.12,3730.89C3869.7,3731.05 3869.24,3731 3868.85,3730.76C3868.47,3730.52 3868.22,3730.12 3868.17,3729.68L3846.17,3531.02L3293.12,3730.89C3292.7,3731.05 3292.24,3731 3291.85,3730.76C3291.47,3730.52 3291.22,3730.12 3291.17,3729.68L3266.47,3506.58L2651.21,3730.89C2650.76,3731.06 2650.26,3730.99 2649.87,3730.72C2649.47,3730.44 2649.24,3729.99 2649.24,3729.52L2649.24,3521.24L2074.21,3730.89C2073.76,3731.06 2073.26,3730.99 2072.87,3730.72C2072.47,3730.44 2072.24,3729.99 2072.24,3729.52L2072.24,3495.5L1432.29,3730.89C1431.81,3731.07 1431.28,3730.98 1430.88,3730.67C1430.48,3730.36 1430.27,3729.86 1430.33,3729.36L1454.57,3510.46L855.287,3730.89C854.812,3731.07 854.279,3730.98 853.88,3730.67C853.482,3730.36 853.273,3729.86 853.328,3729.36L1137.57,1162.67ZM3751.63,2663.97L3585.2,1161.2L3697.09,1161.2L3697.79,696.205L997.117,696.205L989.549,1161.2L1139.2,1161.2L854.782,3729.52L1456.28,3508.27L1716.2,1161.2L2073.7,1161.2L2073.7,3281.16L1456.28,3508.27L1431.78,3729.52L2073.7,3493.4L2073.7,3281.16L2650.7,3068.93L2650.7,1161.2L3008.2,1161.2L3197.21,2867.91L2650.7,3068.93L2650.7,3281.16L2073.7,3493.4L2073.7,3729.52L2650.7,3519.15L2650.7,3281.16L3219.79,3071.84L3197.21,2867.91L3751.63,2663.97ZM3847.42,3529.02L3869.63,3729.52L4289.38,3577.82L4283.39,3371.46L3847.42,3529.02ZM3799.93,3100.16L3822.32,3302.36L3267.72,3504.57L3292.63,3729.52L3847.42,3529.02L3822.32,3302.36L4281.17,3135.07L4281.04,2924.76L3799.93,3100.16ZM3751.63,2663.97L3774.21,2867.91L3219.79,3071.84L3245.32,3302.36L2650.7,3519.15L2650.7,3729.52L3267.72,3504.57L3245.32,3302.36L3799.93,3100.16L3774.21,2867.91L4290.35,2678.05L4278.28,2470.26L3751.63,2663.97ZM2652.17,3282.18L2652.17,3517.06L3243.74,3301.38L3218.55,3073.85L2652.17,3282.18ZM1717.51,1162.67L1458,3506.08L2072.24,3280.14L2072.24,1162.67L1717.51,1162.67ZM3246.9,3303.34L3268.96,3502.55L3820.74,3301.38L3798.68,3102.17L3246.9,3303.34ZM2075.17,3282.18L2075.17,3491.3L2649.24,3280.14L2649.24,3071.02L2075.17,3282.18ZM3198.79,2868.88L3221.04,3069.82L3772.63,2866.93L3750.38,2665.99L3198.79,2868.88ZM2652.17,1162.67L2652.17,3066.83L3195.63,2866.93L3006.89,1162.67L2652.17,1162.67Z" transform="matrix(1,0,0,1,-1330.62,-1222.2) matrix(0.683673,0,0,0.683673,747.228,747.228)" style="fill:#1f00b9"/></g></g><defs><linearGradient id="_Linear1" x1="0" x2="1" y1="0" y2="0" gradientTransform="matrix(3081,0,0,3332,821.705,2362.2)" gradientUnits="userSpaceOnUse"><stop offset="0" style="stop-color:#1c6e8c;stop-opacity:1"/><stop offset="1" style="stop-color:#d62246;stop-opacity:1"/></linearGradient></defs></svg>